<svg xmlns="http://www.w3.org/2000/svg" width="920" height="408" viewBox="0 0 920 408"><title>Mobility Station</title><desc>Open Road C: stacked wordmark with a blue and lime circular o.</desc><g transform="translate(-613 -70)"><path fill="#102C46" d="M624.822 255V125.976H660.995L662.263 156.677L659.018 154.987Q661.543 144.792 666.943 137.688Q672.343 130.584 679.989 126.84Q687.635 123.096 696.688 123.096Q712.701 123.096 722.503 132.49Q732.304 141.883 735.127 157.656L730.557 157.963Q732.842 146.558 738.275 138.816Q743.709 131.074 751.595 127.085Q759.482 123.096 769.13 123.096Q782.263 123.096 791.987 128.645Q801.712 134.194 807.151 145.085Q812.589 155.976 812.589 172.066V255H772.365V183.499Q772.365 168.955 768.29 161.746Q764.214 154.536 754.845 154.536Q748.883 154.536 744.837 157.944Q740.791 161.352 738.65 167.933Q736.509 174.514 736.509 183.845V255H700.662V183.845Q700.662 169.358 696.851 161.947Q693.04 154.536 683.44 154.536Q677.478 154.536 673.432 157.944Q669.386 161.352 667.216 167.962Q665.047 174.571 665.047 183.845V255Z"/>
<circle cx="892.16" cy="190.488" r="50" fill="none" stroke="#246BFE" stroke-width="34.6"/><path d="M942.16 190.488A50 50 0 0 1 917.16 233.789" fill="none" stroke="#D6F366" stroke-width="34.6"/>
<path fill="#102C46" d="M1049.846 257.88Q1036.281 257.88 1026.508 252.182Q1016.736 246.485 1011.216 236.165L1010.496 255H971.644V84.6H1011.868V144.466Q1017.216 135.086 1026.931 129.091Q1036.646 123.096 1049.846 123.096Q1066.099 123.096 1078.065 131.438Q1090.032 139.781 1096.569 154.934Q1103.107 170.088 1103.107 190.488Q1103.107 210.888 1096.569 226.042Q1090.032 241.195 1078.065 249.538Q1066.099 257.88 1049.846 257.88ZM1037.519 227.918Q1048.31 227.918 1055.025 218.117Q1061.74 208.315 1061.74 190.488Q1061.74 172.603 1055.207 162.83Q1048.675 153.058 1037.635 153.058Q1029.523 153.058 1023.676 157.421Q1017.83 161.784 1014.849 170.155Q1011.868 178.526 1011.868 190.488Q1011.868 202.152 1014.849 210.552Q1017.83 218.952 1023.648 223.435Q1029.465 227.918 1037.519 227.918Z"/>
<path fill="#102C46" d="M1115.295 255V125.976H1155.519V255Z"/><circle fill="#102C46" cx="1135.407" cy="96.12" r="20.6"/>
<path fill="#102C46" d="M1210.13 255Q1193.253 255 1183.74 246.504Q1174.226 238.008 1174.226 218.961V84.6H1214.45V214.545Q1214.45 220.574 1217.311 223.161Q1220.172 225.749 1225.471 225.749H1233.41V255Z"/>
<path fill="#102C46" d="M1241.317 255V125.976H1281.541V255Z"/><circle fill="#102C46" cx="1261.429" cy="96.12" r="20.6"/>
<path fill="#102C46" d="M1355.563 255Q1334.817 255 1325.169 245.347Q1315.521 235.694 1315.521 214.699V95.669H1355.746V209.477Q1355.746 218.846 1359.677 222.297Q1363.608 225.749 1371.71 225.749H1389.586V255ZM1294.248 155.227V125.976H1389.586V155.227Z"/>
<path fill="#102C46" d="M1411.585 291V261.749H1429.326Q1435.316 261.749 1438.192 259.982Q1441.067 258.216 1442.747 253.656L1445.118 247.493H1434.51L1389.592 125.976H1430.277L1457.435 209.803L1482.913 125.976H1523.598L1474.734 266.155Q1470.04 279.576 1461.654 285.288Q1453.269 291 1438.177 291Z"/><g transform="translate(62 0)"><path fill="#102C46" d="M682.086 471.48Q660.554 471.48 646.85 465.869Q633.146 460.258 626.238 450.446Q619.331 440.635 618.371 427.973L659.008 426.715Q660.563 435.317 665.935 439.786Q671.306 444.254 682.269 444.254Q691.034 444.254 695.56 441.331Q700.086 438.408 700.086 432.696Q700.086 428.933 698.262 426.485Q696.438 424.037 691.269 422.155Q686.099 420.274 676.058 418.603Q655.197 415.061 643.384 410.203Q631.571 405.346 626.762 397.69Q621.952 390.034 621.952 378.494Q621.952 359.63 636.832 348.163Q651.712 336.696 681.683 336.696Q701.767 336.696 714.635 342.485Q727.504 348.274 734.119 358.454Q740.733 368.635 741.568 381.874L701.478 383.314Q701.363 377.314 699.064 372.946Q696.765 368.578 692.349 366.25Q687.933 363.922 681.203 363.922Q672.813 363.922 668.066 367.469Q663.319 371.016 663.319 377.17Q663.319 381.403 665.291 384.178Q667.264 386.952 672.074 388.651Q676.883 390.35 685.005 391.541Q705.731 394.296 718.115 399.461Q730.499 404.626 735.976 412.618Q741.453 420.61 741.453 431.966Q741.453 451.128 725.704 461.304Q709.955 471.48 682.086 471.48Z"/>
<path fill="#102C46" d="M809.149 468.6Q788.403 468.6 778.755 458.947Q769.107 449.294 769.107 428.299V309.269H809.331V423.077Q809.331 432.446 813.262 435.897Q817.194 439.349 825.296 439.349H843.171V468.6ZM747.833 368.827V339.576H843.171V368.827Z"/>
<path fill="#102C46" d="M892.511 471.48Q872.284 471.48 859.459 462.178Q846.633 452.875 846.633 436.19Q846.633 419.141 857.601 409.872Q868.569 400.603 889.631 396.216L930.009 387.998Q930.009 376.478 924.911 370.565Q919.814 364.651 910.348 364.651Q900.979 364.651 895.761 369.072Q890.544 373.493 888.94 381.979L848.793 380.482Q852.575 358.286 868.473 347.491Q884.371 336.696 910.348 336.696Q940.3 336.696 955.267 350.405Q970.233 364.114 970.233 391.09V432.523Q970.233 438.302 972.158 440.193Q974.083 442.085 977.683 442.085H980.899V468.6Q979.027 469.205 974.86 469.69Q970.694 470.174 966.652 470.174Q959.289 470.174 952.339 467.688Q945.388 465.202 940.982 458.592Q936.575 451.982 936.575 439.646L939.705 442.68Q937.295 451.387 931.18 457.896Q925.065 464.405 915.374 467.942Q905.683 471.48 892.511 471.48ZM902.822 444.965Q910.799 444.965 916.881 441.778Q922.963 438.59 926.486 432.442Q930.009 426.293 930.009 417.374V411.902L904.051 417.758Q896.38 419.429 892.19 423.072Q888 426.715 888 432.446Q888 438.408 891.715 441.686Q895.43 444.965 902.822 444.965Z"/>
<path fill="#102C46" d="M1042.93 468.6Q1022.185 468.6 1012.537 458.947Q1002.889 449.294 1002.889 428.299V309.269H1043.113V423.077Q1043.113 432.446 1047.044 435.897Q1050.975 439.349 1059.078 439.349H1076.953V468.6ZM981.615 368.827V339.576H1076.953V368.827Z"/>
<path fill="#102C46" d="M1086.866 468.6V339.576H1127.09V468.6Z"/><circle fill="#102C46" cx="1106.978" cy="309.72" r="20.6"/>
<path fill="#102C46" d="M1206.603 471.48Q1186.347 471.48 1171.232 463.138Q1156.117 454.795 1147.731 439.613Q1139.346 424.43 1139.346 404.088Q1139.346 383.688 1147.731 368.626Q1156.117 353.563 1171.232 345.13Q1186.347 336.696 1206.603 336.696Q1226.859 336.696 1241.946 345.13Q1257.032 353.563 1265.418 368.626Q1273.804 383.688 1273.804 404.088Q1273.804 424.43 1265.418 439.613Q1257.032 454.795 1241.946 463.138Q1226.859 471.48 1206.603 471.48ZM1206.603 441.518Q1219.016 441.518 1225.727 431.745Q1232.437 421.973 1232.437 404.088Q1232.437 386.386 1225.727 376.522Q1219.016 366.658 1206.603 366.658Q1194.191 366.658 1187.452 376.522Q1180.712 386.386 1180.712 404.088Q1180.712 421.973 1187.452 431.745Q1194.191 441.518 1206.603 441.518Z"/>
<path fill="#102C46" d="M1286.088 468.6V339.576H1322.261L1323.893 378.725L1318.939 377.842Q1320.61 362.549 1326.518 353.587Q1332.427 344.626 1341.312 340.661Q1350.197 336.696 1360.949 336.696Q1374.677 336.696 1384.522 342.629Q1394.366 348.562 1399.685 359.482Q1405.003 370.402 1405.003 385.666V468.6H1364.779V399.269Q1364.779 389.333 1363.296 382.387Q1361.813 375.442 1357.91 371.789Q1354.008 368.136 1346.961 368.136Q1336.699 368.136 1331.506 376.191Q1326.312 384.245 1326.312 399.269V468.6Z"/></g></g></svg>